# xmcd CD database file
#
# Track frame offsets:
#	150
#	111089
#	112279
#	126526
#	142721
#	155999
#	168459
#	183926
#	196236
#	211201
#	226059
#	239374
#	252941
#	263921
#
# Disc length: 3704 seconds
#
# Revision: 0
# Processed by: cddbd v1.5PL3 Copyright (c) Steve Scherf et al.
# Submitted via: CDex 1.51
#
DISCID=ca0e760e
DTITLE=LINKIN PARK - METEORA
DYEAR=1900
DGENRE=Rock
TTITLE0=でーた
TTITLE1=Foreword (Intro)
TTITLE2=Don't Stay
TTITLE3=Somewhere I Belong
TTITLE4=Lying From You
TTITLE5=Hit The Floor
TTITLE6=Easier To Run
TTITLE7=Faint
TTITLE8=Figure.09
TTITLE9=Breaking The Habit
TTITLE10=From The Inside
TTITLE11=Nobody's Listening
TTITLE12=Session
TTITLE13=Numb
EXTD=
EXTT0=
EXTT1=
EXTT2=
EXTT3=
EXTT4=
EXTT5=
EXTT6=
EXTT7=
EXTT8=
EXTT9=
EXTT10=
EXTT11=
EXTT12=
EXTT13=
PLAYORDER=
